<svg width="20" height="14" viewBox="0 0 20 14" fill="none" xmlns="http://www.w3.org/2000/svg">
<path fill-rule="evenodd" clip-rule="evenodd" d="M14.5191 12.6405L13.0499 11.1712C12.0776 11.6805 11.0477 12 10 12C8.47421 12 6.98616 11.3224 5.65914 10.3677C4.34002 9.41862 3.26409 8.25582 2.58386 7.42995C2.48409 7.30882 2.40958 7.21821 2.34785 7.13851C2.29899 7.07541 2.26786 7.03148 2.24756 7C2.26786 6.96852 2.29899 6.92459 2.34785 6.86149C2.40958 6.78179 2.48409 6.69118 2.58386 6.57005C3.24928 5.76217 4.29335 4.63187 5.57331 3.69463L4.14458 2.2659C2.79643 3.29616 1.72247 4.47005 1.04009 5.29852C1.01651 5.32716 0.991924 5.35661 0.966622 5.38692L0.966605 5.38694C0.653181 5.76236 0.229736 6.26957 0.229736 7C0.229736 7.73043 0.65318 8.23764 0.966604 8.61306L0.966823 8.61333C0.992053 8.64355 1.01657 8.67291 1.04009 8.70147C1.77996 9.59975 2.98018 10.9041 4.49111 11.9912C5.99416 13.0725 7.89008 14 10 14C11.67 14 13.206 13.419 14.5191 12.6405ZM6.80682 0.685503C7.79062 0.268714 8.86431 0 10 0C12.1099 0 14.0059 0.927471 15.5089 2.00885C17.0198 3.0959 18.2201 4.40025 18.9599 5.29853C18.9835 5.32715 19.0081 5.35659 19.0334 5.38689L19.0334 5.38694C19.3468 5.76236 19.7703 6.26957 19.7703 7C19.7703 7.73043 19.3468 8.23764 19.0334 8.61306C19.0081 8.64338 18.9835 8.67283 18.9599 8.70148C18.4733 9.29233 17.7874 10.0589 16.945 10.8237L15.529 9.40766C16.3089 8.70804 16.9539 7.99119 17.4162 7.42995C17.5159 7.30882 17.5904 7.21821 17.6522 7.13851C17.701 7.07541 17.7322 7.03147 17.7525 7C17.7322 6.96852 17.701 6.92458 17.6522 6.86149C17.5904 6.78179 17.5159 6.69118 17.4162 6.57005C16.7359 5.74418 15.66 4.58138 14.3409 3.63233C13.0139 2.6776 11.5258 2 10 2C9.449 2 8.90292 2.08837 8.36756 2.24624L6.80682 0.685503Z" fill="#CCD2E3"/>
</svg>
