<svg width="24" height="24" viewBox="0 0 24 24" fill="none" xmlns="http://www.w3.org/2000/svg">
<path d="M12 4.64C14.2534 4.64 15.7734 5.61333 16.64 6.42667L20.0267 3.12C17.9467 1.18667 15.24 0 12 0C7.30672 0 3.25338 2.69333 1.28005 6.61333L5.16005 9.62667C6.13338 6.73333 8.82671 4.64 12 4.64Z" fill="#EA4335"/>
<path d="M23.52 12.2666C23.52 11.28 23.44 10.56 23.2667 9.81329H12V14.2666H18.6133C18.48 15.3733 17.76 17.04 16.16 18.16L19.9467 21.0933C22.2133 19 23.52 15.92 23.52 12.2666Z" fill="#4285F4"/>
<path d="M5.17333 14.3733C4.92 13.6267 4.77333 12.8267 4.77333 12C4.77333 11.1733 4.92 10.3733 5.16 9.62668L1.28 6.61334C0.466667 8.24001 0 10.0667 0 12C0 13.9333 0.466667 15.76 1.28 17.3867L5.17333 14.3733Z" fill="#FBBC05"/>
<path d="M11.9999 24C15.2399 24 17.9599 22.9334 19.9465 21.0934L16.1599 18.16C15.1465 18.8667 13.7865 19.36 11.9999 19.36C8.82655 19.36 6.13321 17.2667 5.17321 14.3734L1.29321 17.3867C3.26655 21.3067 7.30655 24 11.9999 24Z" fill="#34A853"/>
</svg>
