<svg width="390" height="231" viewBox="0 0 390 231" fill="none" xmlns="http://www.w3.org/2000/svg">
<g filter="url(#filter0_d_68_576)">
<path fill-rule="evenodd" clip-rule="evenodd" d="M422.519 57.6576C403.946 111.462 320.534 101.631 269.102 129.562C219.175 156.676 188.617 219.266 130.551 216.218C66.8752 212.876 10.6426 167.411 -21.7218 114.297C-53.6032 61.9749 -55.2422 -1.47673 -36.655 -58.1904C-19.2438 -111.316 22.9478 -151.666 74.0944 -178.061C123.266 -203.438 181.161 -215.629 235.178 -198.478C286.548 -182.167 314.422 -134.42 345.54 -91.8747C380.233 -44.4423 441.116 3.78402 422.519 57.6576Z" fill="url(#paint0_linear_68_576)"/>
</g>
<defs>
<filter id="filter0_d_68_576" x="-58.6299" y="-212.458" width="494.605" height="442.784" filterUnits="userSpaceOnUse" color-interpolation-filters="sRGB">
<feFlood flood-opacity="0" result="BackgroundImageFix"/>
<feColorMatrix in="SourceAlpha" type="matrix" values="0 0 0 0 0 0 0 0 0 0 0 0 0 0 0 0 0 0 127 0" result="hardAlpha"/>
<feOffset dy="4"/>
<feGaussianBlur stdDeviation="5"/>
<feComposite in2="hardAlpha" operator="out"/>
<feColorMatrix type="matrix" values="0 0 0 0 0 0 0 0 0 0 0 0 0 0 0 0 0 0 0.06 0"/>
<feBlend mode="normal" in2="BackgroundImageFix" result="effect1_dropShadow_68_576"/>
<feBlend mode="normal" in="SourceGraphic" in2="effect1_dropShadow_68_576" result="shape"/>
</filter>
<linearGradient id="paint0_linear_68_576" x1="21.8714" y1="163.433" x2="397.465" y2="9.41835" gradientUnits="userSpaceOnUse">
<stop stop-color="#F6E6ED"/>
<stop offset="1" stop-color="#E8E8E8"/>
</linearGradient>
</defs>
</svg>
