<svg width="243" height="111" viewBox="0 0 243 111" fill="none" xmlns="http://www.w3.org/2000/svg">
<g filter="url(#filter0_d_357_1781)">
<rect x="19" y="11" width="205" height="73" rx="36.5" fill="white"/>
<g filter="url(#filter1_d_357_1781)">
<circle cx="54" cy="48" r="26" fill="white"/>
</g>
<path d="M62.5 39.5L45.5 56.5" stroke="#31425F" stroke-width="2" stroke-linecap="round" stroke-linejoin="round"/>
<path d="M45.5 39.5L62.5 56.5" stroke="#31425F" stroke-width="2" stroke-linecap="round" stroke-linejoin="round"/>
<circle cx="190" cy="48" r="26" fill="#03734B"/>
<path d="M179.083 50.8333L183.983 54.5081C184.412 54.8297 185.018 54.7561 185.357 54.3414L197.5 39.5" stroke="white" stroke-width="3" stroke-linecap="round"/>
<g filter="url(#filter2_d_357_1781)">
<circle cx="122" cy="47" r="26" fill="#110F58"/>
</g>
<path d="M110.667 47C110.667 44.8314 110.667 43.7472 110.853 42.8467C111.579 39.3284 114.328 36.5791 117.847 35.8526C118.747 35.6667 119.832 35.6667 122 35.6667V35.6667C124.169 35.6667 125.253 35.6667 126.153 35.8526C129.672 36.5791 132.421 39.3284 133.147 42.8467C133.333 43.7472 133.333 44.8314 133.333 47V54.3333C133.333 56.2189 133.333 57.1617 132.748 57.7475C132.162 58.3333 131.219 58.3333 129.333 58.3333H122C119.832 58.3333 118.747 58.3333 117.847 58.1474C114.328 57.4209 111.579 54.6716 110.853 51.1533C110.667 50.2528 110.667 49.1685 110.667 47V47Z" stroke="white" stroke-width="3"/>
<path d="M117.75 45.5833L126.25 45.5833" stroke="white" stroke-width="3" stroke-linecap="round" stroke-linejoin="round"/>
<path d="M122 51.25H126.25" stroke="white" stroke-width="3" stroke-linecap="round" stroke-linejoin="round"/>
</g>
<defs>
<filter id="filter0_d_357_1781" x="0" y="0" width="243" height="111" filterUnits="userSpaceOnUse" color-interpolation-filters="sRGB">
<feFlood flood-opacity="0" result="BackgroundImageFix"/>
<feColorMatrix in="SourceAlpha" type="matrix" values="0 0 0 0 0 0 0 0 0 0 0 0 0 0 0 0 0 0 127 0" result="hardAlpha"/>
<feOffset dy="8"/>
<feGaussianBlur stdDeviation="9.5"/>
<feComposite in2="hardAlpha" operator="out"/>
<feColorMatrix type="matrix" values="0 0 0 0 0 0 0 0 0 0 0 0 0 0 0 0 0 0 0.1 0"/>
<feBlend mode="normal" in2="BackgroundImageFix" result="effect1_dropShadow_357_1781"/>
<feBlend mode="normal" in="SourceGraphic" in2="effect1_dropShadow_357_1781" result="shape"/>
</filter>
<filter id="filter1_d_357_1781" x="20" y="14" width="68" height="68" filterUnits="userSpaceOnUse" color-interpolation-filters="sRGB">
<feFlood flood-opacity="0" result="BackgroundImageFix"/>
<feColorMatrix in="SourceAlpha" type="matrix" values="0 0 0 0 0 0 0 0 0 0 0 0 0 0 0 0 0 0 127 0" result="hardAlpha"/>
<feOffset/>
<feGaussianBlur stdDeviation="4"/>
<feComposite in2="hardAlpha" operator="out"/>
<feColorMatrix type="matrix" values="0 0 0 0 0 0 0 0 0 0 0 0 0 0 0 0 0 0 0.12 0"/>
<feBlend mode="normal" in2="BackgroundImageFix" result="effect1_dropShadow_357_1781"/>
<feBlend mode="normal" in="SourceGraphic" in2="effect1_dropShadow_357_1781" result="shape"/>
</filter>
<filter id="filter2_d_357_1781" x="94" y="19" width="56" height="56" filterUnits="userSpaceOnUse" color-interpolation-filters="sRGB">
<feFlood flood-opacity="0" result="BackgroundImageFix"/>
<feColorMatrix in="SourceAlpha" type="matrix" values="0 0 0 0 0 0 0 0 0 0 0 0 0 0 0 0 0 0 127 0" result="hardAlpha"/>
<feOffset/>
<feGaussianBlur stdDeviation="1"/>
<feComposite in2="hardAlpha" operator="out"/>
<feColorMatrix type="matrix" values="0 0 0 0 0 0 0 0 0 0 0 0 0 0 0 0 0 0 1 0"/>
<feBlend mode="normal" in2="BackgroundImageFix" result="effect1_dropShadow_357_1781"/>
<feBlend mode="normal" in="SourceGraphic" in2="effect1_dropShadow_357_1781" result="shape"/>
</filter>
</defs>
</svg>
